<svg id="Layer_1" data-name="Layer 1" xmlns="http://www.w3.org/2000/svg" viewBox="0 0 600 600"><title>Vista</title><g id="JUl8Nb.tif"><path d="M294.34,161.23h12c2,.25,3.92.65,5.9.73A258.2,258.2,0,0,1,392,178.39c60.75,22.55,111.22,59.91,153.65,108.53,3.57,4.09,7.1,8.21,10.65,12.31v2c-3.23,3.73-6.49,7.43-9.68,11.19a392.07,392.07,0,0,1-89.17,77.32c-29.11,18.49-60.26,32.51-93.83,41C299.44,447,238.2,437.83,179.11,409.57c-36.55-17.48-69.15-40.71-98.18-68.81-13-12.57-24.81-26.36-37.27-39.72,4.16-5.2,7.35-9.45,10.8-13.48A389.19,389.19,0,0,1,164.87,198c32-17.4,66-29.29,102.18-34.1C276.11,162.74,285.24,162.12,294.34,161.23Zm-77.2,225.45c-38.7-38.2-40.48-89.65-32.22-114.39L206.17,276C194,329.67,223.9,374.3,264,390.14c43.6,17.23,92.15,2,117.18-36.23a97.44,97.44,0,0,0-12.3-122.49c-30.6-30.79-89.82-42.89-135.08-2.37-3.64-4.08-7.57-7.95-10.82-12.32-2.73-3.65-5.26-3.71-9.24-2.1-39.25,15.85-73.71,39-104.64,67.7C102.91,288.06,96.95,294,90.77,300,127.36,338.21,168.41,368.1,217.14,386.68Zm166.4,0c48.85-18.68,90-48.59,126.11-86.48-36.29-37.93-77.36-67.85-126.14-86.49C432.67,261.54,431,340.73,383.54,386.69Z"/><path d="M239,281.44l48.4,8.09L255.88,254c19.09-21.55,57.23-24.29,82.13-6.13,27,19.68,34.88,56.31,18.27,84.62-17,29-52.88,40.46-82.85,26.49C243.9,345.17,228.57,311.07,239,281.44Z"/></g></svg>